<svg width="120" height="120" viewBox="0 0 120 120" fill="none" xmlns="http://www.w3.org/2000/svg">
<path d="M90 10.05L30 10C24.45 10 20 14.45 20 20V100C20 105.55 24.45 110 30 110H90C95.55 110 100 105.55 100 100V20C100 14.45 95.55 10.05 90 10.05ZM90 100H30L29.95 20H90V100Z" fill="white"/>
<path d="M40 35C42.7614 35 45 32.7614 45 30C45 27.2386 42.7614 25 40 25C37.2386 25 35 27.2386 35 30C35 32.7614 37.2386 35 40 35Z" fill="white"/>
<path d="M55 35C57.7614 35 60 32.7614 60 30C60 27.2386 57.7614 25 55 25C52.2386 25 50 27.2386 50 30C50 32.7614 52.2386 35 55 35Z" fill="white"/>
<path d="M60 95C73.8 95 85 83.8 85 70C85 56.2 73.8 45 60 45C46.2 45 35 56.2 35 70C35 83.8 46.2 95 60 95ZM71.8 58.2C78.3 64.7 78.3 75.3 71.8 81.8C65.3 88.3 54.7 88.3 48.2 81.8L71.8 58.2Z" fill="white"/>
</svg>
