<svg width="120" height="120" viewBox="0 0 120 120" fill="none" xmlns="http://www.w3.org/2000/svg">
<path d="M109.8 84.7266C107.674 83.7345 105.028 82.5 100.178 82.5C95.3278 82.5 92.6817 83.7347 90.5559 84.7266C88.732 85.5776 87.2916 86.25 84.1052 86.25C80.9189 86.25 79.4789 85.5778 77.6552 84.7266C75.5292 83.7347 72.8836 82.5 68.0337 82.5C63.1838 82.5 60.5381 83.7349 58.4123 84.7266C56.5887 85.5776 55.1484 86.25 51.9626 86.25C48.7767 86.25 47.3367 85.5778 45.5133 84.7266C43.3875 83.7347 40.7419 82.5 35.8922 82.5C31.0425 82.5 28.3966 83.7349 26.2709 84.7266C24.4472 85.5776 23.007 86.25 19.8211 86.25C16.6352 86.25 15.195 85.5778 13.3713 84.7266C11.2455 83.7349 8.59969 82.5 3.75 82.5V90C6.93586 90 8.37609 90.6722 10.1998 91.5234C12.3255 92.5153 14.9714 93.75 19.8211 93.75C24.6708 93.75 27.3166 92.5151 29.4424 91.5234C31.2661 90.6724 32.7063 90 35.8922 90C39.078 90 40.518 90.6722 42.3415 91.5234C44.4673 92.5153 47.1129 93.75 51.9626 93.75C56.8123 93.75 59.4581 92.5151 61.5839 91.5234C63.4076 90.6724 64.848 90 68.0337 90C71.2193 90 72.66 90.6722 74.4837 91.5234C76.6097 92.5153 79.2553 93.75 84.1052 93.75C88.9552 93.75 91.6013 92.5153 93.7273 91.5234C95.5509 90.6724 96.9916 90 100.178 90C103.364 90 104.805 90.6722 106.628 91.5234C108.754 92.5155 111.4 93.75 116.25 93.75V86.25C113.064 86.25 111.623 85.5778 109.8 84.7266Z" fill="white"/>
<path d="M100.178 105C95.3278 105 92.6817 106.235 90.5559 107.227C88.732 108.078 87.2916 108.75 84.1052 108.75C80.9189 108.75 79.4789 108.078 77.6552 107.227C75.5292 106.235 72.8836 105 68.0337 105C63.1838 105 60.5381 106.235 58.4123 107.227C56.5887 108.078 55.1484 108.75 51.9626 108.75C48.7767 108.75 47.3367 108.078 45.5133 107.227C43.3875 106.235 40.7419 105 35.8922 105C31.0425 105 28.3966 106.235 26.2709 107.227C24.4472 108.078 23.007 108.75 19.8211 108.75C16.6352 108.75 15.195 108.078 13.3713 107.227C11.2455 106.235 8.59969 105 3.75 105V112.5C6.93586 112.5 8.37609 113.172 10.1998 114.023C12.3255 115.015 14.9714 116.25 19.8211 116.25C24.6708 116.25 27.3166 115.015 29.4424 114.023C31.2661 113.172 32.7063 112.5 35.8922 112.5C39.078 112.5 40.518 113.172 42.3415 114.023C44.4673 115.015 47.1129 116.25 51.9626 116.25C56.8123 116.25 59.4581 115.015 61.5839 114.023C63.4076 113.172 64.848 112.5 68.0337 112.5C71.2193 112.5 72.66 113.172 74.4837 114.023C76.6097 115.015 79.2553 116.25 84.1052 116.25C88.9552 116.25 91.6013 115.015 93.7273 114.023C95.5509 113.172 96.9916 112.5 100.178 112.5C103.364 112.5 104.805 113.172 106.628 114.023C108.754 115.016 111.4 116.25 116.25 116.25V108.75C113.064 108.75 111.623 108.078 109.8 107.227C107.674 106.235 105.028 105 100.178 105Z" fill="white"/>
<path d="M58.125 63.75H91.875V76.875H99.375V27.1589C99.3721 24.8827 100.063 22.6596 101.355 20.7855L113.066 3.75H103.965L95.1741 16.5366C93.0209 19.66 91.8701 23.3652 91.875 27.1589V37.5H58.125V27.1589C58.1221 24.8827 58.8126 22.6596 60.1046 20.7855L71.8165 3.75H62.7148L53.9241 16.5366C51.7709 19.66 50.6201 23.3652 50.625 27.1589V76.875H58.125V63.75ZM58.125 45H91.875V56.25H58.125V45Z" fill="white"/>
</svg>
