<svg width="97" height="92" viewBox="0 0 97 92" fill="none" xmlns="http://www.w3.org/2000/svg">
<path d="M27.4998 51.6998L41.6498 37.5498L6.54981 2.49979C2.80406 6.25634 0.700623 11.3448 0.700623 16.6498C0.700623 21.9547 2.80406 27.0432 6.54981 30.7998L27.4998 51.6998ZM61.3998 42.6498C69.0498 46.1998 79.7998 43.6998 87.7498 35.7498C97.2998 26.1998 99.1498 12.4998 91.7998 5.14979C84.4998 -2.15021 70.7998 -0.350212 61.1998 9.19979C53.2498 17.1498 50.7498 27.8998 54.2998 35.5498L5.49981 84.3498L12.5498 91.3998L46.9998 57.0498L81.3998 91.4498L88.4498 84.3998L54.0498 49.9998L61.3998 42.6498Z" fill="white"/>
</svg>
