<svg width="100" height="98" viewBox="0 0 100 98" fill="none" xmlns="http://www.w3.org/2000/svg">
<path d="M93.935 33.1145C93.31 33.2495 84.92 35.2045 74.17 41.9845C72.555 34.1495 67.775 19.4795 53.63 4.55949L50 0.729492L46.37 4.56449C32.175 19.5395 27.415 34.2495 25.815 42.1345C15.025 35.2395 6.7 33.2595 6.09 33.1195L0 31.7595V37.9995C0 74.4495 19.625 97.9995 50 97.9995C79.905 97.9995 100 73.8895 100 37.9995V31.7895L93.935 33.1145ZM34.995 48.1895C35.005 48.0245 35.755 32.6895 50 15.5295C64.07 32.5295 64.995 47.9995 65 47.9995V48.6245C59.3928 53.2841 54.3427 58.5758 49.95 64.3945C45.5449 58.6786 40.5303 53.4595 34.995 48.8295V48.1895ZM50 87.9995C23.42 87.9995 12.255 67.0195 10.315 45.1795C18.59 48.7695 33.395 57.3095 45.85 75.7945L50.055 82.0395L54.18 75.7395C66.31 57.1995 81.305 48.6845 89.66 45.1295C87.67 66.2695 76.52 87.9995 50 87.9995Z" fill="white"/>
</svg>
