<svg width="120" height="120" viewBox="0 0 120 120" fill="none" xmlns="http://www.w3.org/2000/svg">
<path d="M57.8007 36.0432C60.7279 36.0457 63.5362 34.8854 65.6079 32.8175C67.6797 30.7496 68.8452 27.9435 68.8482 25.0163C68.847 23.567 68.5602 22.1322 68.0043 20.7938C67.4484 19.4553 66.6342 18.2396 65.6083 17.2159C64.5823 16.1922 63.3648 15.3807 62.0251 14.8278C60.6855 14.2748 59.25 13.9912 57.8007 13.9932C51.6976 13.9932 46.7513 18.9282 46.7513 25.0163C46.7553 27.9435 47.9214 30.7493 49.9934 32.817C52.0653 34.8848 54.8735 36.0452 57.8007 36.0432Z" fill="white"/>
<path d="M91.4629 110.586H3.38661C0.90598 110.586 1.16098 112.536 1.16098 112.536V115.782C1.16098 115.782 0.935981 119.998 5.26723 119.998H115.549C119.908 119.998 119.672 115.879 119.672 115.879V106.89C119.672 106.89 119.303 104.048 115.96 104.048H105.212C101.528 104.048 98.4829 110.584 91.4647 110.584L91.4629 110.586Z" fill="white"/>
<path d="M100.028 90.6707C100.028 96.1494 104.486 100.599 109.98 100.599C115.472 100.599 119.942 96.1475 119.942 90.6707C119.942 85.1713 115.472 80.7388 109.98 80.7388C108.674 80.7363 107.381 80.9914 106.173 81.4894C104.966 81.9874 103.869 82.7185 102.945 83.641C102.02 84.5635 101.287 85.6592 100.786 86.8654C100.286 88.0716 100.028 89.3647 100.028 90.6707Z" fill="white"/>
<path d="M67.4943 71.7293C67.1635 72.7393 66.6091 73.6616 65.8725 74.4277C65.136 75.1938 64.2361 75.784 63.24 76.1543L54.3768 79.4412L57.6468 82.6868H72.6093L72.6 59.7837L67.5918 71.5906C67.5675 71.6468 67.5225 71.6787 67.4925 71.7293H67.4943Z" fill="white"/>
<path d="M88.9837 88.1283H58.0462L50.5875 80.8458L45.3956 82.7583C41.5444 84.1364 36.855 82.0327 35.4094 78.2058C34.5581 75.8302 34.6762 73.1771 36.0975 71.2439C35.4619 71.2158 17.3344 71.2439 17.3344 71.2439C16.6187 71.2417 15.9095 71.3805 15.2475 71.6524C14.5855 71.9243 13.9835 72.324 13.4759 72.8286C12.9684 73.3332 12.5652 73.9328 12.2894 74.5933C12.0137 75.2537 11.8707 75.962 11.8687 76.6777C11.8687 79.6908 14.3194 82.0458 17.3344 82.0458H35.79L43.1081 93.1252L5.32499 96.1608C4.0173 96.4594 2.8655 97.2294 2.0897 98.3237C1.3139 99.4179 0.968507 100.76 1.11954 102.092C1.27057 103.425 1.90742 104.656 2.9084 105.549C3.90937 106.442 5.20427 106.934 6.54562 106.933L48.9375 106.938C48.1718 105.714 47.7633 104.3 47.7581 102.856C47.7596 100.782 48.5844 98.7925 50.0515 97.3254C51.5185 95.8584 53.5078 95.0336 55.5825 95.0321H72.5437L86.2894 92.1614L87.0525 95.8121L72.9281 98.7614H55.5806C54.4963 98.7505 53.452 99.1708 52.6776 99.9298C51.9031 100.689 51.4619 101.724 51.4509 102.809C51.44 103.893 51.8602 104.937 52.6192 105.712C53.3782 106.486 54.4138 106.927 55.4981 106.938L89.0569 106.942C91.5428 106.931 93.9231 105.936 95.6772 104.175C97.4314 102.413 98.4164 100.029 98.4169 97.5427C98.4166 96.3048 98.1723 95.0791 97.698 93.9356C97.2236 92.7922 96.5285 91.7535 95.6524 90.879C94.7763 90.0044 93.7364 89.3112 92.5921 88.8389C91.4478 88.3666 90.2217 88.1245 88.9837 88.1264V88.1283Z" fill="white"/>
<path d="M44.7415 79.3409C43.6913 79.8 42.5019 79.8239 41.4341 79.4074C40.3663 78.9909 39.5072 78.168 39.0452 77.119C38.8159 76.5988 38.6916 76.0384 38.6794 75.47C38.6672 74.9016 38.7674 74.3364 38.9742 73.8068C39.181 73.2772 39.4903 72.7936 39.8844 72.3839C40.2785 71.9741 40.7497 71.6463 41.2709 71.419L57.0227 65.5053L61.8902 53.8953L58.7177 52.7234L54.5796 62.6647L42.589 67.0803V54.9265L30.8684 67.7272L17.6046 67.714C17.6046 67.714 40.8152 42.2703 41.5409 41.509C42.5027 40.5547 44.7021 38.9722 48.8496 38.9722H63.754C72.2215 38.9722 73.8509 47.4134 72.1184 51.7822L64.324 70.6859C64.0868 71.2288 63.7422 71.718 63.3111 72.1243C62.88 72.5307 62.3712 72.8456 61.8152 73.0503L44.7415 79.3372V79.3409Z" fill="white"/>
</svg>
